<svg xmlns="http://www.w3.org/2000/svg" xmlns:xlink="http://www.w3.org/1999/xlink" viewBox="0 0 51.3492 69.698">
  <defs>
    <linearGradient id="linear-gradient" x1="37.4346" y1="65.354" x2="5.2406" y2="9.5923" gradientUnits="userSpaceOnUse">
      <stop offset="0" stop-color="#f4ab59"/>
      <stop offset="1" stop-color="#e34d9b"/>
    </linearGradient>
    <linearGradient id="linear-gradient-2" x1="41.4583" y1="63.031" x2="9.2643" y2="7.2692" xlink:href="#linear-gradient"/>
    <linearGradient id="linear-gradient-3" x1="64.8022" y1="49.5533" x2="32.6082" y2="-6.2084" xlink:href="#linear-gradient"/>
  </defs>
  <g id="full-rgb">
    <g id="logoMark">
      <path id="logoMark_PathItem_" data-name="logoMark &lt;PathItem&gt;" d="M48.9023,32.2413A9.594,9.594,0,0,1,44.52,32.15a11.1431,11.1431,0,0,0-19.8546,9.2052c-2.04.8268-4.391,1.4171-9.2056.3572-4.2406-.9336-8.4726-4.73-10.8984-8.7916a1.3428,1.3428,0,0,0-2.4852.6646A28.3408,28.3408,0,0,0,15.4478,59.0741,25.24,25.24,0,0,1,2.029,53.0771,1.2106,1.2106,0,0,0,.108,54.4643,25.0527,25.0527,0,0,0,11.7067,66.908,26.5742,26.5742,0,0,0,23.369,69.6957a24.6484,24.6484,0,0,0,18.411-8.308,25.3319,25.3319,0,0,0,4.13-6.6569,25.1468,25.1468,0,0,0,1.3927-16.0044,9.5183,9.5183,0,0,1,.846-2.8057c1.076-2.2391,2.1545-2.3989,1.6476-3.2773A.8382.8382,0,0,0,48.9023,32.2413Z" style="fill: url(#linear-gradient)"/>
      <path id="logoMark_PathItem_2" data-name="logoMark &lt;PathItem&gt;" d="M2.2581,18.2557c.0054.0171.0128.0332.0189.05a1.3523,1.3523,0,0,0,.6625.7691c.0125.0067.0267.0109.04.0172a1.4767,1.4767,0,0,0,.1652.0717,16.934,16.934,0,0,1,10.872,11.5479,1.4157,1.4157,0,0,0,1.3467.9878l.0048,0a1.1743,1.1743,0,0,0,.9943-.4178,1.4051,1.4051,0,0,0,.3445-.574c.0235-.076.0486-.1484.0726-.2233.1729-.4474.352-1.0177.627-1.7079a16.3856,16.3856,0,0,1,5.9844-7.5426c3.4451-2.3607,5.1506-1.6894,5.1483-3.3944a1.4091,1.4091,0,0,0-.9652-1.3352c-5.5024-1.8247-9.1123-5.9249-10.87-11.547a1.4086,1.4086,0,0,0-2.6886-.0008A17.07,17.07,0,0,1,4.9273,15.778c-.6323.283-1.16.47-1.5779.6465-.0686.0245-.1361.05-.2054.0738a1.3968,1.3968,0,0,0-.5932.3882,1.1891,1.1891,0,0,0-.359.9444,1.4,1.4,0,0,0,.0466.3429C2.245,18.2011,2.25,18.2288,2.2581,18.2557Z" style="fill: url(#linear-gradient-2)"/>
      <path id="logoMark_PathItem_3" data-name="logoMark &lt;PathItem&gt;" d="M50.6586,8.9717A11.97,11.97,0,0,1,42.88.7093,1.0079,1.0079,0,0,0,40.9565.7087a12.2147,12.2147,0,0,1-6.5023,7.7437c-.4525.2025-.83.3362-1.1291.4627-.0491.0174-.0974.0358-.1469.0527a.9988.9988,0,0,0-.4245.2778.851.851,0,0,0-.2569.6758,1.0048,1.0048,0,0,0,.0333.2453c.0048.02.0083.0393.0141.0586.0039.0122.0092.0237.0135.0358a.9687.9687,0,0,0,.4741.55c.009.0047.0191.0077.0283.0122a1.061,1.061,0,0,0,.1182.0514,12.1171,12.1171,0,0,1,7.7794,8.2629,1.013,1.013,0,0,0,.9636.7069l.0034,0a.84.84,0,0,0,.7115-.2989,1.0055,1.0055,0,0,0,.2464-.4108c.0169-.0544.0349-.1062.0521-.16.1236-.32.2518-.7282.4486-1.222a11.7247,11.7247,0,0,1,4.2821-5.3971c2.4651-1.6892,3.6855-1.2089,3.6838-2.4288A1.0083,1.0083,0,0,0,50.6586,8.9717Z" style="fill: url(#linear-gradient-3)"/>
    </g>
  </g>
</svg>
